<svg id="Layer_1" data-name="Layer 1" xmlns="http://www.w3.org/2000/svg" viewBox="0 0 777.45 185.23"><defs><style>.cls-1{fill:#fff;}.cls-2{fill:#fe7c00;}.cls-3{fill:#f32913;}.cls-4{fill:#044fb8;}</style></defs><path class="cls-1" d="M24.35,9.87q69.39,0,138.79,0a26.94,26.94,0,0,1,26.65,27V175.34H58.67c-5.36-.08-10.9.48-16-1.42A27,27,0,0,1,24.35,149q0-69.59,0-139.16"/><path class="cls-1" d="M53.58,19.9c-6.43-.06-12.86,0-19.29,0,0,40.91,0,81.84,0,122.75.2,11.87,10.59,22.4,22.46,22.7q35.79.1,71.58,0c2,2.09,5.55,2.67,7.78.64a5.42,5.42,0,0,0-.27-8.45c-2.63-2.07-6.6-.88-8.18,1.93-21.92,0-43.86,0-65.79,0a21.74,21.74,0,0,1-21.67-22q0-55.71,0-111.42c4.5,0,9,0,13.5,0a6.35,6.35,0,0,0,5,2.2,5.4,5.4,0,0,0,0-10.77,6.1,6.1,0,0,0-5.13,2.45"/><path class="cls-1" d="M75,18.49a5.44,5.44,0,0,0,.26,8.86c2.41,1.7,5.68.73,7.53-1.34,23.13.11,46.25,0,69.38.06a21.81,21.81,0,0,1,19.63,13,24,24,0,0,1,1.79,10.66q0,54.84,0,109.67H159.49a6.15,6.15,0,0,0-4.76-3,5.39,5.39,0,0,0-1.32,10.66,6.39,6.39,0,0,0,5.49-1.82c7,.08,13.94,0,20.91,0q0-61.37,0-122.71c-.13-11.92-10.63-22.51-22.55-22.76q-37.12-.06-74.26,0c-1.81-2.4-5.46-3.39-8-1.43"/><path class="cls-1" d="M90.1,50.57V61.51c6.51,0,13,0,19.51,0,5.9.33,12.08,2.43,16.07,7,4.13,4.84,4.37,12.17,1.64,17.74-2.39,5-7.82,7.93-13.22,8.09-3.22.06-6.43,0-9.65,0q-1.31,6.26-2.65,12.51h8.58q7.41,13.28,14.82,26.56c4.93,0,9.87,0,14.81,0q-8.16-14.42-16.34-28.83c8.07-3.07,15.23-9.47,17.6-18,2.77-9.65.44-21-6.94-28-5.89-5.64-14.24-7.77-22.2-8-7.34-.09-14.68,0-22,0"/><path class="cls-1" d="M106.24,66.39a14.67,14.67,0,0,0-6.45,5.24c-5.55.06-11.11,0-16.67,0a6.93,6.93,0,0,0-6.89,5.77c-.89,9.93-2.12,19.83-3.12,29.75h8C80,116.09,78.91,125,77.77,133.9q11.52-18.18,23.1-36.32c-3.79,0-7.58,0-11.37,0q1.84-5.92,3.71-11.84h6.67a13.93,13.93,0,0,0,9.05,5.84,13.13,13.13,0,1,0-2.69-25.2"/><path class="cls-1" d="M107.86,67.48a11.57,11.57,0,1,1-8.28,9.34,11.65,11.65,0,0,1,8.28-9.34"/><path class="cls-2" d="M53.58,19.9a6.1,6.1,0,0,1,5.13-2.45,5.4,5.4,0,0,1,0,10.77,6.35,6.35,0,0,1-5-2.2,7.58,7.58,0,0,1-.15-6.12"/><path class="cls-2" d="M75,18.49c2.49-2,6.14-1,8,1.43A8,8,0,0,1,82.82,26c-1.85,2.07-5.12,3-7.53,1.34A5.44,5.44,0,0,1,75,18.49"/><path class="cls-2" d="M127.69,159.46c1.58-2.81,5.55-4,8.18-1.93a5.42,5.42,0,0,1,.27,8.45c-2.23,2-5.81,1.45-7.78-.64a7.43,7.43,0,0,1-.67-5.88"/><path class="cls-2" d="M149.14,161.25a5.41,5.41,0,0,1,5.59-4.76,6.15,6.15,0,0,1,4.76,3,8.65,8.65,0,0,1-.59,5.88,6.39,6.39,0,0,1-5.49,1.82,5.42,5.42,0,0,1-4.27-5.9Z"/><path class="cls-3" d="M34.29,19.88c6.43,0,12.86,0,19.29,0A7.58,7.58,0,0,0,53.73,26c-4.5.08-9,0-13.5,0q0,55.71,0,111.42a21.74,21.74,0,0,0,21.67,22c21.93,0,43.87,0,65.79,0a7.43,7.43,0,0,0,.67,5.88q-35.79,0-71.58,0c-11.87-.3-22.26-10.83-22.46-22.7-.07-40.91,0-81.84,0-122.75"/><path class="cls-3" d="M83,19.92q37.13-.12,74.26,0c11.92.25,22.42,10.84,22.55,22.76q.06,61.35,0,122.71c-7,0-13.95,0-20.91,0a8.65,8.65,0,0,0,.59-5.88h14.12q0-54.82,0-109.67a24,24,0,0,0-1.79-10.66,21.81,21.81,0,0,0-19.63-13C129.07,26,106,26.12,82.82,26A8,8,0,0,0,83,19.92"/><path class="cls-4" d="M90.1,50.57c7.35,0,14.69,0,22,0,8,.18,16.31,2.31,22.2,8,7.38,7,9.71,18.35,6.94,28-2.37,8.5-9.53,14.9-17.6,18q8.16,14.41,16.34,28.83c-4.94,0-9.88,0-14.81,0q-7.42-13.27-14.82-26.56H101.8q1.35-6.25,2.65-12.51c3.22,0,6.43.06,9.65,0,5.4-.16,10.83-3.14,13.22-8.09,2.73-5.57,2.49-12.9-1.64-17.74-4-4.53-10.17-6.63-16.07-7-6.5,0-13,0-19.51,0V50.57"/><path class="cls-4" d="M120.31,69.36a13.15,13.15,0,0,0-14.07-3,14.67,14.67,0,0,0-6.45,5.24c-5.55.06-11.11,0-16.67,0a6.93,6.93,0,0,0-6.89,5.77c-.89,9.93-2.12,19.83-3.12,29.75h8C80,116.09,78.91,125,77.77,133.9q11.52-18.18,23.1-36.32c-3.79,0-7.58,0-11.37,0q1.84-5.92,3.71-11.84h6.67a13.93,13.93,0,0,0,9.05,5.84,13.12,13.12,0,0,0,11.38-22.23ZM118,87.88a11.58,11.58,0,1,1,4.11-12.69A11.58,11.58,0,0,1,118,87.88Z"/><path class="cls-3" d="M712.34,49h11.47V71.31c3.7-3,8.07-5.55,13-5.69A15.37,15.37,0,0,1,751,73c2,3.52,2.1,7.68,2.07,11.63q0,14,0,28.08c-3.79,0-7.58,0-11.38,0,0-8.16.08-16.32-.07-24.48-.2-3.24-.11-6.81-2.13-9.54-2.53-3.28-7.71-3.25-10.87-.92-3.33,2.45-4.68,6.73-4.72,10.72-.24,8.08,0,16.16-.11,24.24H712.34V49"/><path class="cls-3" d="M560.46,50.44h34.35c0,3.84,0,7.67,0,11.51H583.46q0,25.35,0,50.7c-4,0-8,0-12,0V62h-11c0-3.84,0-7.67,0-11.51"/><path class="cls-3" d="M647.64,93c.38-7.26-1.38-15-6.63-20.32-6.34-6.79-16.69-8.53-25.37-6a23.28,23.28,0,0,0-15.45,16.6,27.69,27.69,0,0,0,.17,13.83,22.82,22.82,0,0,0,15.8,15.72,31.15,31.15,0,0,0,16.86-.34,23,23,0,0,0,11.58-8.72c-3.22-1.55-6.46-3-9.69-4.56-4.81,4.64-12.64,6-18.53,2.65-3.26-1.81-5.15-5.28-5.9-8.82C622.87,93,635.25,93,647.64,93Zm-36.59-9c1.7-4.08,5.09-7.59,9.6-8.3,6.32-1.57,13.46,2,15.47,8.3Q623.58,84.05,611.05,84Z"/><path class="cls-3" d="M658.1,77.53C667,62.38,691.83,61.42,702,75.73c-3.19,1.73-6.4,3.43-9.59,5.15-5.66-6.17-16.57-6.6-22.41-.52-3.88,4-4.59,10.46-2.42,15.49a13.09,13.09,0,0,0,11.86,7.45,15.45,15.45,0,0,0,13-5.25q4.51,3.12,9.05,6.2a24.06,24.06,0,0,1-12.52,8.49,33.7,33.7,0,0,1-17.66-.18,23.63,23.63,0,0,1-15.34-15,24.18,24.18,0,0,1,2.17-20Z"/><path class="cls-4" d="M372.82,49.55a7.54,7.54,0,1,1-4.39,7.28,7.38,7.38,0,0,1,4.39-7.28"/><path class="cls-4" d="M234.16,86.13c3.19-1.28,6.34-3,8.46-5.79,3.3-4.24,3.85-10,2.85-15.16-1.11-5.87-5.6-11.14-11.54-12.46-8.19-1.78-16.64-.84-24.94-1.08q0,31.1,0,62.18h11.85c.09-9-.13-17.9.12-26.84a5.57,5.57,0,0,1,2,2.25q6.44,12.32,13,24.58c4.31,0,8.62,0,12.93,0Q241.49,100,234.16,86.13Zm-2.33-11.41c-3.43,1.57-7.33,1.1-11,1.2q0-6.4,0-12.8c3.29.09,6.72-.32,9.9.73C235.15,65.36,235.87,72.43,231.83,74.72Z"/><path class="cls-4" d="M290.93,67.9q0,2.46,0,4.92a20.65,20.65,0,0,0-14.41-6,20.45,20.45,0,0,0-16.39,7.93c-4.87,5.92-6.09,14.12-4.81,21.52,1.71,10,10.76,18.88,21.22,18.75,5.41.26,10.52-2.27,14.38-5.91,0,1.58,0,3.17,0,4.77h11.47V67.9C298.58,67.9,294.76,67.89,290.93,67.9Zm-1.52,30.84c-3.45,6-12.21,7.64-17.66,3.48-5.52-4-6.75-12.07-4-18a12.21,12.21,0,0,1,7.63-6.51,13,13,0,0,1,11.13,2.08C292.2,84.08,292.86,92.84,289.41,98.74Z"/><path class="cls-4" d="M355,73.1a20.24,20.24,0,0,0-16.62-6.26c-4.86.28-9.3,2.73-12.79,6,0-1.65,0-3.3,0-4.95-3.82,0-7.64,0-11.44,0,0,20.91,0,41.83,0,62.74h11.45c0-7.19,0-14.38,0-21.57,3.93,3.73,9.19,6.23,14.7,5.91,10.57,0,19.57-9.16,21.06-19.34C362.63,87.7,360.85,78.9,355,73.1ZM344.6,102.42a12.56,12.56,0,0,1-13.38.33c-9-5.4-8-21.5,2.29-24.86a12.86,12.86,0,0,1,11.72,1.8C352.24,85.1,351.92,97.42,344.6,102.42Z"/><path class="cls-4" d="M403.51,72.54c3.23-2.55,6.8-5,11-5.57a16.09,16.09,0,0,1,15.47,6c2.29,3.17,2.82,7.21,2.83,11v29.88c-3.81,0-7.61,0-11.42,0,0-8.29.09-16.57-.07-24.85-.22-3.11-.11-6.57-2.09-9.17-2.23-2.92-6.65-3.21-9.74-1.62-3.91,2.07-5.67,6.65-5.79,10.87-.32,8.25-.08,16.52-.16,24.77H392q0-23,0-45.93h11.52c0,1.54,0,3.09,0,4.64"/><path class="cls-4" d="M455.41,72.52c3.16-2.46,6.59-4.88,10.64-5.49a16.32,16.32,0,0,1,14.46,4.34c3.16,3.07,4.15,7.68,4.16,11.94q0,15.25,0,30.52c-3.82,0-7.63,0-11.44,0,0-8.24.09-16.49-.07-24.73-.17-3.06-.07-6.4-1.88-9-2.42-3.49-7.79-3.6-11-1.19-3.4,2.46-4.7,6.84-4.75,10.88-.23,8,0,16-.12,24.08H443.92V67.9c3.83,0,7.66,0,11.5,0,0,1.54,0,3.07,0,4.62"/><path class="cls-4" d="M539.56,80.8c-4.51-10.27-16.79-16.09-27.63-13.43C503.12,69.51,495.68,77,494,85.94a24.84,24.84,0,0,0,2.65,17,24.2,24.2,0,0,0,15,11.4,25.14,25.14,0,0,0,19.5-3.41C540.77,104.68,544.53,91.13,539.56,80.8Zm-15.12,21.68a12.7,12.7,0,0,1-14.58-.53c-4.53-3.55-5.67-10-4.24-15.32a12.37,12.37,0,0,1,9-8.76,12.9,12.9,0,0,1,9.86,1.7C532.08,84.6,532,97.47,524.44,102.48Z"/><path class="cls-4" d="M369.94,67.91c3.87,0,7.74,0,11.61,0v45.93c-3.87,0-7.74,0-11.61,0V67.91"/><path class="cls-4" d="M269.62,141.28a2.41,2.41,0,0,1,3.69,1.93,2.37,2.37,0,0,1-3.69,2,2.34,2.34,0,0,1,0-3.9"/><path class="cls-4" d="M290.5,141.27c-1.25,0-2.48,0-3.71,0,0,2.34,0,4.69,0,7-2-1.47-4.74-2.41-7.17-1.27-4.66,1.91-5.78,8.64-2.59,12.32a6.63,6.63,0,0,0,9.43.94c.39,2,2.59,1.05,4,1.26C290.48,154.8,290.5,148,290.5,141.27Zm-9,17c-3.5-1.37-3.28-7.38.47-8.25a4.25,4.25,0,1,1-.47,8.25Z"/><path class="cls-4" d="M349.16,141.27q1.81,0,3.66,0c0,2.32,0,4.65,0,7,2-1.3,4.59-2.43,6.86-1.09,1.92.89,2.62,3.1,2.51,5.08,0,3.11,0,6.22,0,9.32h-3.64c-.13-3.43.33-6.94-.39-10.32-1-2.34-4.56-1.32-5,.91-.63,3.08-.2,6.28-.32,9.41h-3.66V141.27"/><path class="cls-4" d="M399.62,141.27q1.85,0,3.72,0c0,6.76,0,13.54,0,20.31l-3.69,0q0-10.12,0-20.27"/><path class="cls-4" d="M559.3,141.27c1.22,0,2.44,0,3.67,0v5.65h2.19c0,1.05,0,2.11,0,3.17H563v11.48H559.3V150.08h-1.88c0-1.05,0-2.11,0-3.16h1.89c0-1.89,0-3.77,0-5.64"/><path class="cls-4" d="M567.34,141.27a2.36,2.36,0,1,1,0,4,2.35,2.35,0,0,1,0-4"/><path class="cls-4" d="M664.73,141.27q1.83,0,3.69,0v20.28c-1.23,0-2.46,0-3.67,0,0-6.78,0-13.55,0-20.31"/><path class="cls-4" d="M671.83,141.34a2.39,2.39,0,0,1,3.74,1.9,2.35,2.35,0,1,1-3.74-1.9"/><path class="cls-4" d="M749.11,141.27c0,2.33,0,4.68,0,7-2.19-1.62-5.22-2.42-7.7-1-5,2.58-5.11,10.65-.36,13.52,2.48,1.75,5.78,1.08,8.08-.62,0,.33,0,1,0,1.35h3.68q0-10.16,0-20.29C751.55,141.26,750.33,141.26,749.11,141.27Zm-5,17.1c-3.67-1.11-3.71-7.22,0-8.29a4.26,4.26,0,1,1,0,8.29Z"/><path class="cls-4" d="M225.54,153c4.05-1.47,5-7.34,1.65-10-2.86-1.87-6.51-1-9.74-1.21,0,6.6,0,13.2,0,19.8,1.25,0,2.51,0,3.77,0,0-2.88,0-5.77,0-8.66,1.7,2.83,3.17,5.79,4.77,8.68l4.13,0Q227.84,157.25,225.54,153Zm-4.31-3.28c0-1.46,0-2.91,0-4.36,1.68.06,4.63,0,4.33,2.48C225.33,149.92,222.73,149.41,221.23,149.69Z"/><path class="cls-4" d="M300.53,141.76h11v3.65l-3.61,0v16.12h-3.83V145.43c-1.18,0-2.36,0-3.53,0,0-1.23,0-2.45,0-3.67"/><path class="cls-4" d="M466.54,141.77h3.73c0,6.6,0,13.2,0,19.8h-3.74V141.77"/><path class="cls-4" d="M639.25,142.78c-3.4-1.46-7.22-.91-10.83-1v19.79c3.47-.09,7.06.32,10.44-.66C646,157.93,645.93,146.21,639.25,142.78ZM639,156.26c-1.64,2-4.48,1.51-6.75,1.68q0-6.3,0-12.58c2.37.13,5.26,0,6.83,2.14A7.66,7.66,0,0,1,639,156.26Z"/><path class="cls-4" d="M247.42,161.56c0-4.89,0-9.79,0-14.68-1.36.27-3.69-.75-3.94,1.28a6.74,6.74,0,0,0-7.8-.62c-4.63,2.8-4.6,10.55.05,13.33,2.49,1.71,5.78,1,8.06-.69l-.1,1.37Zm-9.13-3.34c-3.37-1.45-3.16-7.2.47-8.16a4,4,0,0,1,5.15,4.1C244.2,157.07,241,159.55,238.29,158.22Z"/><path class="cls-4" d="M262.28,147.18c-2.5-1.31-5.35-.37-7.51,1.14,0-.35.09-1,.11-1.4H251.2q0,10,0,20h3.66c0-2.24,0-4.48-.05-6.72,2.23,1.73,5.42,2.43,7.92.83C267.76,158.15,267.57,149.6,262.28,147.18Zm-4.37,11.31c-3.7-.61-4.4-6.34-1.2-8.09a4,4,0,0,1,5.84,2.53C263.51,155.75,261,159.23,257.91,158.49Z"/><path class="cls-4" d="M319.11,158.44c-1.46-.43-2-2-2.74-3.15,4.06-.11,8.12,0,12.19-.08-.21-1.94-.35-4-1.61-5.65a8,8,0,0,0-10.48-1.83c-4.07,2.47-4.65,8.93-1.14,12.12s9.38,2.56,12.24-1.1c-1-.48-2-.95-3-1.41C322.93,158.32,321,159.2,319.11,158.44Zm1.22-8.7c2-.35,3.57,1.09,4.63,2.59-2.8.08-5.59.08-8.39,0C317.52,151.12,318.65,149.79,320.33,149.74Z"/><path class="cls-4" d="M333,148.79a9.13,9.13,0,0,1,12.85.91l-3,1.61c-1.92-1.38-4.66-2.05-6.72-.56-2.45,1.63-2.32,5.89.35,7.25,2.08,1.15,4.55.37,6.41-.85.93.65,1.87,1.31,2.8,2-3.24,3.16-8.84,3.83-12.41.88a7.62,7.62,0,0,1-.27-11.23"/><path class="cls-4" d="M369.36,148.3c1.57-.91,3.26-2.05,5.19-1.69a4.68,4.68,0,0,1,4.17,4.32c.2,3.54,0,7.09.07,10.64l-3.68,0c-.15-3.42.34-6.9-.33-10.27-.92-2.33-4.5-1.42-5,.78-.73,3.1-.26,6.34-.38,9.5h-3.65q0-7.32,0-14.64h3.65c0,.35-.05,1-.07,1.38"/><path class="cls-4" d="M397,153.5c-.25-4.74-5.62-8.14-10-6.58a7.67,7.67,0,1,0,10,6.58Zm-9.19,4.78c-3.52-1.37-3.25-7.39.5-8.25a4,4,0,0,1,5,4.18A4.09,4.09,0,0,1,387.84,158.28Z"/><path class="cls-4" d="M411.49,146.85a7.77,7.77,0,0,0-5.43,6.06,7.7,7.7,0,1,0,15.3,1.33C421.57,149.29,416.16,145.36,411.49,146.85Zm.72,11.47c-3.66-1.3-3.34-7.63.57-8.33a4,4,0,0,1,4.86,4.19A4.1,4.1,0,0,1,412.21,158.32Z"/><path class="cls-4" d="M439,146.92h-3.7c0,.35.06,1.05.07,1.41-2.24-1.62-5.29-2.49-7.83-1-5.06,2.6-4.91,11.07.22,13.52,2.53,1.36,5.44.51,7.75-.87a11.44,11.44,0,0,1-.93,2.77c-1.56,1.49-4.08,1.36-5.88.42-1.54-.87-3.35-.58-5-.64,1.81,4.85,8.2,5.81,12.35,3.57,2.16-1.2,3-3.76,3-6.09C439.07,155.65,439,151.28,439,146.92Zm-8.42,11.19c-3.51-.67-4.2-6-1.12-7.69,2.41-1.47,6,.23,6,3.12A4,4,0,0,1,430.59,158.11Z"/><path class="cls-4" d="M477.81,148.23c1.54-.81,3.14-1.92,5-1.65a4.71,4.71,0,0,1,4.34,4.32c.2,3.55,0,7.1.07,10.66h-3.64c-.13-3.45.32-7-.4-10.38-1-2.26-4.56-1.23-5,1-.63,3.09-.2,6.27-.31,9.4h-3.68V146.92h3.68l-.08,1.31"/><path class="cls-4" d="M494.45,148.31c1.68-1.05,3.63-2.24,5.71-1.59a4.62,4.62,0,0,1,3.62,4.23c.2,3.52,0,7.05.09,10.59-1.22,0-2.43,0-3.64,0-.14-3.44.34-7-.42-10.34-1-2.28-4.48-1.34-4.95.84-.72,3.1-.25,6.33-.38,9.49h-3.64V146.92h3.63c0,.35,0,1,0,1.39"/><path class="cls-4" d="M522.12,153.51c-.3-4.71-5.57-8.12-10-6.61a7.77,7.77,0,0,0-5.17,5.44c-1.35,4.61,2.59,9.74,7.41,9.54A7.71,7.71,0,0,0,522.12,153.51Zm-9.25,4.76c-3.47-1.38-3.21-7.31.47-8.23a4,4,0,0,1,5.08,4.16A4.09,4.09,0,0,1,512.87,158.27Z"/><path class="cls-4" d="M551.55,146.92l.12,1.41c-2.18-1.55-5.11-2.48-7.61-1.1-5.21,2.48-5.38,10.88-.41,13.71,2.51,1.66,5.74.94,8-.8,0,.35-.07,1.06-.1,1.42h3.7V146.92Zm-5.26,11.38c-3.62-1.33-3.35-7.59.56-8.31a4.26,4.26,0,1,1-.56,8.31Z"/><path class="cls-4" d="M578.48,146.9a7.87,7.87,0,0,0-4.88,4.52,7.73,7.73,0,0,0,5.83,10.37c4.52.93,9.27-2.93,9-7.6C588.7,149.2,583.14,145.29,578.48,146.9Zm.8,11.39c-3.54-1.32-3.29-7.36.44-8.25a4,4,0,0,1,5,4.11A4.09,4.09,0,0,1,579.28,158.29Z"/><path class="cls-4" d="M595.23,148.28c1.5-.85,3.06-1.94,4.88-1.71a4.71,4.71,0,0,1,4.43,4.28c.26,3.56,0,7.13.11,10.69l-3.66,0c-.15-3.47.39-7-.43-10.43-1.12-2.26-4.64-1.13-5,1.13-.56,3.07-.19,6.2-.29,9.31l-3.69,0c0-4.88,0-9.75,0-14.62h3.69c0,.34,0,1-.07,1.36"/><path class="cls-4" d="M607.91,152.19c-1.17-2.58,1.12-5.42,3.75-5.59,2.2-.4,4.14.92,5.68,2.34-.75.76-1.48,1.53-2.22,2.3-1.24-.72-2.64-1.9-4.09-.94.41,2,3,2.15,4.43,3.38a4.35,4.35,0,0,1,.3,7.15c-2.72,2-6.58,1.06-8.78-1.27.74-.8,1.48-1.59,2.23-2.38,1.6,1.1,3.72,2,5.3.3-1.9-2.15-5.31-2.58-6.6-5.29"/><path class="cls-4" d="M653.06,158.5c-1.56-.39-2.21-2-3-3.22,4.07-.1,8.14,0,12.21-.06-.2-1.93-.31-4-1.56-5.62a8,8,0,0,0-10.38-1.95c-4.22,2.43-4.82,9.08-1.18,12.28a8.6,8.6,0,0,0,12.14-1.18c-1-.48-2-.95-3-1.41C656.74,158.27,654.9,159.16,653.06,158.5Zm1.21-8.78c1.93-.25,3.43,1.16,4.47,2.61q-4.2.12-8.38,0C651.32,151.06,652.53,149.72,654.27,149.72Z"/><path class="cls-4" d="M699.5,158.51c-1.58-.37-2.25-2-3-3.23,4.07-.1,8.14,0,12.22-.06-.21-1.94-.32-4-1.56-5.63a8,8,0,0,0-10.77-1.69,7.93,7.93,0,0,0-.81,12,8.6,8.6,0,0,0,12.16-1.17c-1-.48-2-.95-3-1.41C703.16,158.26,701.34,159.15,699.5,158.51Zm1.8-8.78c1.71,0,2.88,1.36,3.85,2.6q-4.2.12-8.39,0C697.79,150.85,699.34,149.47,701.3,149.73Z"/><path class="cls-4" d="M713.93,148.32a5.15,5.15,0,0,1,4.76-1.69c-.31,1-.64,2.06-1,3.09-1.06.09-2.46,0-2.76,1.32-.88,3.43-.31,7-.46,10.52h-3.66q0-7.32,0-14.64H714c0,.35,0,1.05-.07,1.4"/><path class="cls-4" d="M726.09,158.51c-1.57-.38-2.23-2-2.94-3.22,4.06-.12,8.12,0,12.18-.08-.2-2-.35-4.1-1.65-5.7a8,8,0,0,0-10.47-1.76c-4,2.48-4.6,8.88-1.13,12.08s9.39,2.58,12.28-1.07c-1-.49-2-1-3.05-1.42C729.76,158.27,727.92,159.15,726.09,158.51Zm1.66-8.79c1.78-.06,3,1.33,4,2.61-2.8.08-5.61.08-8.4,0C724.38,150.91,725.83,149.53,727.75,149.72Z"/><path class="cls-4" d="M269.1,161.56c0-4.88,0-9.76,0-14.65h3.66v14.64H269.1"/><path class="cls-4" d="M441,146.92h3.78c1.25,3,2.45,6,3.74,9,1.59-2.91,2.82-6,4.29-9l3.74.05c-3.08,6.64-6.1,13.31-9.21,19.95h-3.79c1-2.13,2-4.28,3-6.41-1.82-4.53-3.73-9-5.57-13.55"/><path class="cls-4" d="M523.53,146.92h3.75c1.24,2.85,2.44,5.73,3.69,8.58,1.25-2.86,2.46-5.75,3.72-8.6l3.71,0c-2.11,4.88-4.14,9.79-6.28,14.65-.59,0-1.76,0-2.35,0-2.08-4.87-4.18-9.74-6.24-14.62"/><path class="cls-4" d="M566.78,161.57c0-4.89,0-9.78,0-14.66h3.66v14.64h-3.66"/><path class="cls-4" d="M671.38,146.92h3.69v14.64h-3.69V146.92"/><path class="cls-4" d="M676.85,146.91h3.76c1.23,2.86,2.44,5.72,3.68,8.58,1.26-2.85,2.46-5.71,3.69-8.58h3.75q-3.12,7.34-6.27,14.66l-2.35,0c-2.11-4.87-4.17-9.76-6.26-14.64Z"/><path class="cls-2" d="M107.42,74.28c.21.12.5-.12.35-.34-.26-.37-.51-.75-.8-1.1-.1-.15-.27-.06-.4,0-.11.34.2.57.36.82A7.89,7.89,0,0,0,107.42,74.28Z"/><path class="cls-2" d="M114.6,74.26c.31-.36.57-.76.84-1.14s-.21-.51-.38-.3-.55.73-.82,1.11A.25.25,0,0,0,114.6,74.26Z"/><path class="cls-2" d="M111.24,73a13.64,13.64,0,0,0,0-1.43c0-.26-.47-.28-.48,0,0,.46,0,.92,0,1.38A.25.25,0,0,0,111.24,73Z"/><path class="cls-2" d="M104.06,76.8c.37.15.75.25,1.13.38.16.06.43.12.47-.12s-.29-.34-.49-.42a4.57,4.57,0,0,0-1.07-.28A.24.24,0,0,0,104.06,76.8Z"/><path class="cls-2" d="M117.21,77.05a6,6,0,0,0,.84-.3.25.25,0,0,0-.25-.41c-.45.14-.91.27-1.34.45-.19.07-.11.3,0,.43A1.81,1.81,0,0,0,117.21,77.05Z"/><path class="cls-2" d="M105.14,80.45c-.37.14-.75.25-1.11.41a.26.26,0,0,0,.13.45,12.31,12.31,0,0,0,1.44-.51C105.84,80.49,105.41,80.23,105.14,80.45Z"/><path class="cls-2" d="M118,80.83c-.37-.15-.76-.25-1.13-.39-.13,0-.32-.13-.43,0a.25.25,0,0,0,.09.4c.43.15.86.32,1.31.44C118,81.35,118.17,80.94,118,80.83Z"/><path class="cls-2" d="M115.55,79.29a3,3,0,0,0,.25-1.68,2.9,2.9,0,0,0-1.14-1.82,4.25,4.25,0,0,0-.46-.27,2.93,2.93,0,0,0-.35-.79,1.78,1.78,0,0,0-1.88-.61,1.93,1.93,0,0,0-1,.69,2,2,0,0,0-1.32-.75,1.72,1.72,0,0,0-1.63.8,4.06,4.06,0,0,0-.25.66,2.88,2.88,0,0,0-.89.65,2.65,2.65,0,0,0-.71,1.39,3.41,3.41,0,0,0,.24,1.81,2.74,2.74,0,0,0,.19,2.75h0a2.85,2.85,0,0,0,1,.88c.18.06.18.26.24.41a1.71,1.71,0,0,0,1.85,1.12,1.82,1.82,0,0,0,1.24-.77,1.74,1.74,0,0,0,2,.71,1.81,1.81,0,0,0,1.2-1.4,3.31,3.31,0,0,0,.61-.39h0a2.81,2.81,0,0,0,.89-3C115.65,79.57,115.6,79.43,115.55,79.29Zm-4.82.24q0,1.31,0,2.61c0,.48.08,1-.27,1.43a1.19,1.19,0,0,1-1.86-1.48.29.29,0,0,0-.26-.49,2,2,0,0,0-.53.88,3.2,3.2,0,0,1-.61-.55,2.32,2.32,0,0,1-.38-2.08c.33.42.91.55,1.15,1.05a1.69,1.69,0,0,0,1.16.7c.27,0,.38.3.38.53s-.27.44-.38.68a.29.29,0,0,0,.43.25,1.24,1.24,0,0,0,.37-1.53c.21-.12.49-.19.57-.44s-.22-.37-.4-.25a1.37,1.37,0,0,1-.9.22,1.22,1.22,0,0,1-1-1.36,2.13,2.13,0,0,1,.41-.77c.12-.22-.22-.47-.4-.3a1.63,1.63,0,0,0-.55,1.13.5.5,0,0,1,0,.12c-.13-.14-.28-.28-.41-.43a2.44,2.44,0,0,1-.48-1.12,2.36,2.36,0,0,1,.41-1.59,4.4,4.4,0,0,1,.67-.62l.12.28a3.43,3.43,0,0,1,.23.52,1.55,1.55,0,0,0-.79.63.27.27,0,0,0,.31.37c.23-.13.38-.38.64-.48a1.31,1.31,0,0,1,1.14.11,1.2,1.2,0,0,1,.32,1.62c-.1.16-.33.31-.23.53a.28.28,0,0,0,.44.07,1.73,1.73,0,0,0,.32-2,2.22,2.22,0,0,0-.47-.58,1.2,1.2,0,0,0,.19-1.66c-.1-.19-.33-.1-.5-.09-.1.35.33.61.2,1a.6.6,0,0,1-.78.4,1.11,1.11,0,0,1-.57-.68,1.32,1.32,0,0,1,.21-1,1.2,1.2,0,0,1,1.18-.45,1.32,1.32,0,0,1,.94.85c0,.65,0,1.31,0,2S110.72,78.83,110.73,79.53Zm3.08.12a1.44,1.44,0,0,1-.21,1,1.29,1.29,0,0,1-1,.45,2.35,2.35,0,0,1-.85-.27.27.27,0,0,0-.23.4,1.75,1.75,0,0,0,.51.34,1.27,1.27,0,0,0,.28,1.45c.11.13.39.17.47,0s-.11-.36-.21-.51a.66.66,0,0,1,.09-.83,1.73,1.73,0,0,0,1.39-.8c.16-.34.52-.45.78-.67.11-.1.21-.21.31-.32a2.32,2.32,0,0,1-.08,1.6,2.7,2.7,0,0,1-.83,1l-.1,0a2,2,0,0,0-.48-.79c-.19-.09-.46.1-.37.31a1.67,1.67,0,0,1,.33.87,1.19,1.19,0,0,1-1.2,1.21,1.24,1.24,0,0,1-1.17-1c0-1.23,0-2.46,0-3.69s0-2.43,0-3.64a1.2,1.2,0,0,1,1.44-1.06,1.23,1.23,0,0,1,.94,1.33,1.18,1.18,0,0,1-.57.81.6.6,0,0,1-.82-.45c-.06-.26.13-.45.22-.67a.26.26,0,0,0-.4-.26,1.12,1.12,0,0,0-.35,1.08,1.73,1.73,0,0,0,.42.7l-.16.16a1.73,1.73,0,0,0,0,2.46.28.28,0,0,0,.46-.23c-.13-.26-.37-.46-.42-.76a1.23,1.23,0,0,1,.25-1,1.24,1.24,0,0,1,1.09-.38c.35,0,.58.29.83.5.09.09.24,0,.35,0,.22-.51-.41-.8-.78-1a3.26,3.26,0,0,0,.35-.76,2.18,2.18,0,0,1,1.1,1.53,2.26,2.26,0,0,1-.72,2l-.17.12a1.72,1.72,0,0,0-.52-1.19.28.28,0,0,0-.46.23C113.52,79.14,113.77,79.35,113.81,79.65Z"/><path class="cls-2" d="M112.37,84.69c-.93,0-1.85,0-2.78,0l-.07,0c-.28.16-.19.72.16.7h2.49c.12,0,.27,0,.37-.07S112.68,84.73,112.37,84.69Z"/><path class="cls-2" d="M112.37,85.65c-1,0-1.91-.05-2.86,0-.26.18-.19.73.17.71.89,0,1.78,0,2.67,0C112.74,86.38,112.76,85.67,112.37,85.65Z"/><path class="cls-2" d="M110.67,87.05a1.83,1.83,0,0,0,.7,0c.19-.09.19-.31.21-.5h-1.15C110.42,86.74,110.46,87,110.67,87.05Z"/></svg>